<mxfile host="Electron" agent="Mozilla/5.0 (X11; Linux x86_64) AppleWebKit/537.36 (KHTML, like Gecko) draw.io/26.1.1 Chrome/132.0.6834.210 Electron/34.3.3 Safari/537.36" version="26.1.1">
  <diagram name="Page-1" id="iAMIFjAE_YiT1gvgW2V3">
    <mxGraphModel dx="3550" dy="2580" grid="1" gridSize="10" guides="1" tooltips="1" connect="1" arrows="1" fold="1" page="1" pageScale="1" pageWidth="827" pageHeight="1169" math="0" shadow="0">
      <root>
        <mxCell id="0" />
        <mxCell id="1" parent="0" />
        <mxCell id="xpqFj0VOEehy9Jd_GjCr-5" value="" style="rounded=0;whiteSpace=wrap;html=1;strokeColor=none;" vertex="1" parent="1">
          <mxGeometry x="-200" y="-110" width="1890" height="1190" as="geometry" />
        </mxCell>
        <mxCell id="xpqFj0VOEehy9Jd_GjCr-6" value="" style="rounded=0;whiteSpace=wrap;html=1;" vertex="1" parent="1">
          <mxGeometry x="60" y="20" width="1480" height="890" as="geometry" />
        </mxCell>
        <mxCell id="xpqFj0VOEehy9Jd_GjCr-7" value="streams" style="shape=hexagon;perimeter=hexagonPerimeter2;whiteSpace=wrap;html=1;fixedSize=1;fillColor=#d5e8d4;strokeColor=#82b366;" vertex="1" parent="1">
          <mxGeometry x="-141" y="405" width="120" height="50" as="geometry" />
        </mxCell>
        <mxCell id="xpqFj0VOEehy9Jd_GjCr-8" value="APIs" style="shape=hexagon;perimeter=hexagonPerimeter2;whiteSpace=wrap;html=1;fixedSize=1;fillColor=#d5e8d4;strokeColor=#82b366;" vertex="1" parent="1">
          <mxGeometry x="-141" y="465" width="120" height="50" as="geometry" />
        </mxCell>
        <mxCell id="xpqFj0VOEehy9Jd_GjCr-9" value="DBs" style="shape=hexagon;perimeter=hexagonPerimeter2;whiteSpace=wrap;html=1;fixedSize=1;fillColor=#d5e8d4;strokeColor=#82b366;" vertex="1" parent="1">
          <mxGeometry x="-141" y="525" width="120" height="50" as="geometry" />
        </mxCell>
        <mxCell id="xpqFj0VOEehy9Jd_GjCr-10" value="Lakes" style="shape=hexagon;perimeter=hexagonPerimeter2;whiteSpace=wrap;html=1;fixedSize=1;fillColor=#d5e8d4;strokeColor=#82b366;" vertex="1" parent="1">
          <mxGeometry x="-141" y="586" width="108" height="45" as="geometry" />
        </mxCell>
        <mxCell id="xpqFj0VOEehy9Jd_GjCr-11" style="edgeStyle=orthogonalEdgeStyle;rounded=0;orthogonalLoop=1;jettySize=auto;html=1;entryX=0;entryY=0.5;entryDx=0;entryDy=0;" edge="1" parent="1" source="xpqFj0VOEehy9Jd_GjCr-12" target="xpqFj0VOEehy9Jd_GjCr-19">
          <mxGeometry relative="1" as="geometry" />
        </mxCell>
        <mxCell id="xpqFj0VOEehy9Jd_GjCr-12" value="Services" style="shape=hexagon;perimeter=hexagonPerimeter2;whiteSpace=wrap;html=1;fixedSize=1;fillColor=#d5e8d4;strokeColor=#82b366;" vertex="1" parent="1">
          <mxGeometry x="-141" y="645" width="120" height="50" as="geometry" />
        </mxCell>
        <mxCell id="xpqFj0VOEehy9Jd_GjCr-13" value="Flink" style="rounded=0;whiteSpace=wrap;html=1;" vertex="1" parent="1">
          <mxGeometry x="120" y="400" width="100" height="235" as="geometry" />
        </mxCell>
        <mxCell id="xpqFj0VOEehy9Jd_GjCr-14" value="" style="shape=cylinder3;whiteSpace=wrap;html=1;boundedLbl=1;backgroundOutline=1;size=15;fillColor=#ffe6cc;strokeColor=#d79b00;" vertex="1" parent="1">
          <mxGeometry x="320" y="405" width="230" height="270" as="geometry" />
        </mxCell>
        <mxCell id="xpqFj0VOEehy9Jd_GjCr-15" value="Minio" style="rounded=0;whiteSpace=wrap;html=1;fillColor=#ffe6cc;strokeColor=#d79b00;" vertex="1" parent="1">
          <mxGeometry x="330" y="595" width="210" height="40" as="geometry" />
        </mxCell>
        <mxCell id="xpqFj0VOEehy9Jd_GjCr-16" value="HiveMetastore" style="rounded=0;whiteSpace=wrap;html=1;fillColor=#ffe6cc;strokeColor=#d79b00;" vertex="1" parent="1">
          <mxGeometry x="330" y="555" width="130" height="40" as="geometry" />
        </mxCell>
        <mxCell id="xpqFj0VOEehy9Jd_GjCr-17" value="Apache Iceberg" style="rounded=0;whiteSpace=wrap;html=1;fillColor=#ffe6cc;strokeColor=#d79b00;" vertex="1" parent="1">
          <mxGeometry x="330" y="515" width="210" height="40" as="geometry" />
        </mxCell>
        <mxCell id="xpqFj0VOEehy9Jd_GjCr-18" value="Bronze Layer" style="text;html=1;align=center;verticalAlign=middle;whiteSpace=wrap;rounded=0;" vertex="1" parent="1">
          <mxGeometry x="405" y="455" width="60" height="30" as="geometry" />
        </mxCell>
        <mxCell id="xpqFj0VOEehy9Jd_GjCr-19" value="WebHook" style="rounded=0;whiteSpace=wrap;html=1;" vertex="1" parent="1">
          <mxGeometry x="120" y="647" width="100" height="45" as="geometry" />
        </mxCell>
        <mxCell id="xpqFj0VOEehy9Jd_GjCr-20" style="edgeStyle=orthogonalEdgeStyle;rounded=0;orthogonalLoop=1;jettySize=auto;html=1;entryX=0;entryY=0.5;entryDx=0;entryDy=0;exitX=0.991;exitY=0.592;exitDx=0;exitDy=0;exitPerimeter=0;" edge="1" parent="1" target="xpqFj0VOEehy9Jd_GjCr-36">
          <mxGeometry relative="1" as="geometry">
            <mxPoint x="1027.9299999999998" y="538.0799999999999" as="sourcePoint" />
          </mxGeometry>
        </mxCell>
        <mxCell id="xpqFj0VOEehy9Jd_GjCr-21" value="" style="shape=cylinder3;whiteSpace=wrap;html=1;boundedLbl=1;backgroundOutline=1;size=15;fillColor=#f5f5f5;fontColor=#333333;strokeColor=#666666;" vertex="1" parent="1">
          <mxGeometry x="800" y="420" width="230" height="240" as="geometry" />
        </mxCell>
        <mxCell id="xpqFj0VOEehy9Jd_GjCr-22" value="Minio" style="rounded=0;whiteSpace=wrap;html=1;fillColor=#f5f5f5;fontColor=#333333;strokeColor=#666666;" vertex="1" parent="1">
          <mxGeometry x="810" y="580" width="210" height="40" as="geometry" />
        </mxCell>
        <mxCell id="xpqFj0VOEehy9Jd_GjCr-23" value="Apache Iceberg" style="rounded=0;whiteSpace=wrap;html=1;fillColor=#f5f5f5;fontColor=#333333;strokeColor=#666666;" vertex="1" parent="1">
          <mxGeometry x="810" y="500" width="210" height="40" as="geometry" />
        </mxCell>
        <mxCell id="xpqFj0VOEehy9Jd_GjCr-24" value="Silver&lt;div&gt;Layer&lt;/div&gt;" style="text;html=1;align=center;verticalAlign=middle;whiteSpace=wrap;rounded=0;" vertex="1" parent="1">
          <mxGeometry x="885" y="458" width="65" height="30" as="geometry" />
        </mxCell>
        <mxCell id="xpqFj0VOEehy9Jd_GjCr-25" value="" style="shape=cylinder3;whiteSpace=wrap;html=1;boundedLbl=1;backgroundOutline=1;size=15;fillColor=#fff2cc;strokeColor=#d6b656;" vertex="1" parent="1">
          <mxGeometry x="1250" y="425" width="230" height="215" as="geometry" />
        </mxCell>
        <mxCell id="xpqFj0VOEehy9Jd_GjCr-26" value="Minio" style="rounded=0;whiteSpace=wrap;html=1;fillColor=#fff2cc;strokeColor=#d6b656;" vertex="1" parent="1">
          <mxGeometry x="1260" y="581" width="210" height="40" as="geometry" />
        </mxCell>
        <mxCell id="xpqFj0VOEehy9Jd_GjCr-27" value="Apache Iceberg" style="rounded=0;whiteSpace=wrap;html=1;fillColor=#fff2cc;strokeColor=#d6b656;" vertex="1" parent="1">
          <mxGeometry x="1260" y="501" width="210" height="40" as="geometry" />
        </mxCell>
        <mxCell id="xpqFj0VOEehy9Jd_GjCr-28" value="Gold&lt;div&gt;Layer&lt;/div&gt;" style="text;html=1;align=center;verticalAlign=middle;whiteSpace=wrap;rounded=0;" vertex="1" parent="1">
          <mxGeometry x="1332.5" y="465" width="65" height="30" as="geometry" />
        </mxCell>
        <mxCell id="xpqFj0VOEehy9Jd_GjCr-29" value="Trino" style="rounded=0;whiteSpace=wrap;html=1;" vertex="1" parent="1">
          <mxGeometry x="620" y="507" width="120" height="65" as="geometry" />
        </mxCell>
        <mxCell id="xpqFj0VOEehy9Jd_GjCr-30" value="DBT" style="rounded=0;whiteSpace=wrap;html=1;" vertex="1" parent="1">
          <mxGeometry x="620" y="335" width="120" height="65" as="geometry" />
        </mxCell>
        <mxCell id="xpqFj0VOEehy9Jd_GjCr-31" value="Postgres" style="rounded=0;whiteSpace=wrap;html=1;fillColor=#ffe6cc;strokeColor=#d79b00;" vertex="1" parent="1">
          <mxGeometry x="460" y="555" width="80" height="40" as="geometry" />
        </mxCell>
        <mxCell id="xpqFj0VOEehy9Jd_GjCr-32" value="HiveMetastore" style="rounded=0;whiteSpace=wrap;html=1;fillColor=#f5f5f5;strokeColor=#666666;fontColor=#333333;" vertex="1" parent="1">
          <mxGeometry x="810" y="540" width="130" height="40" as="geometry" />
        </mxCell>
        <mxCell id="xpqFj0VOEehy9Jd_GjCr-33" value="Postgres" style="rounded=0;whiteSpace=wrap;html=1;fillColor=#f5f5f5;strokeColor=#666666;fontColor=#333333;" vertex="1" parent="1">
          <mxGeometry x="940" y="540" width="80" height="40" as="geometry" />
        </mxCell>
        <mxCell id="xpqFj0VOEehy9Jd_GjCr-34" value="HiveMetastore" style="rounded=0;whiteSpace=wrap;html=1;fillColor=#fff2cc;strokeColor=#d6b656;" vertex="1" parent="1">
          <mxGeometry x="1260" y="541" width="130" height="40" as="geometry" />
        </mxCell>
        <mxCell id="xpqFj0VOEehy9Jd_GjCr-35" value="Postgres" style="rounded=0;whiteSpace=wrap;html=1;fillColor=#fff2cc;strokeColor=#d6b656;" vertex="1" parent="1">
          <mxGeometry x="1390" y="541" width="80" height="40" as="geometry" />
        </mxCell>
        <mxCell id="xpqFj0VOEehy9Jd_GjCr-36" value="Trino" style="rounded=0;whiteSpace=wrap;html=1;" vertex="1" parent="1">
          <mxGeometry x="1080" y="506" width="120" height="65" as="geometry" />
        </mxCell>
        <mxCell id="xpqFj0VOEehy9Jd_GjCr-37" value="DBT" style="rounded=0;whiteSpace=wrap;html=1;" vertex="1" parent="1">
          <mxGeometry x="1080" y="335" width="120" height="65" as="geometry" />
        </mxCell>
        <mxCell id="xpqFj0VOEehy9Jd_GjCr-38" value="" style="endArrow=classic;html=1;rounded=0;exitX=1.013;exitY=0.585;exitDx=0;exitDy=0;exitPerimeter=0;entryX=0;entryY=0.5;entryDx=0;entryDy=0;" edge="1" parent="1" target="xpqFj0VOEehy9Jd_GjCr-29">
          <mxGeometry width="50" height="50" relative="1" as="geometry">
            <mxPoint x="552.9899999999998" y="539.95" as="sourcePoint" />
            <mxPoint x="730" y="632" as="targetPoint" />
          </mxGeometry>
        </mxCell>
        <mxCell id="xpqFj0VOEehy9Jd_GjCr-39" style="edgeStyle=orthogonalEdgeStyle;rounded=0;orthogonalLoop=1;jettySize=auto;html=1;entryX=-0.009;entryY=0.592;entryDx=0;entryDy=0;entryPerimeter=0;" edge="1" parent="1" source="xpqFj0VOEehy9Jd_GjCr-29">
          <mxGeometry relative="1" as="geometry">
            <mxPoint x="797.9299999999998" y="539.0799999999999" as="targetPoint" />
          </mxGeometry>
        </mxCell>
        <mxCell id="xpqFj0VOEehy9Jd_GjCr-40" style="edgeStyle=orthogonalEdgeStyle;rounded=0;orthogonalLoop=1;jettySize=auto;html=1;exitX=1;exitY=0.5;exitDx=0;exitDy=0;entryX=-0.009;entryY=0.637;entryDx=0;entryDy=0;entryPerimeter=0;" edge="1" parent="1" source="xpqFj0VOEehy9Jd_GjCr-36">
          <mxGeometry relative="1" as="geometry">
            <mxPoint x="1247.9300000000003" y="537.9549999999999" as="targetPoint" />
          </mxGeometry>
        </mxCell>
        <mxCell id="xpqFj0VOEehy9Jd_GjCr-41" value="" style="shape=image;verticalLabelPosition=bottom;labelBackgroundColor=default;verticalAlign=top;aspect=fixed;imageAspect=0;image=https://miro.medium.com/v2/resize:fit:860/1*BEGGWVM2rQx438Fevmz1Fw.png;" vertex="1" parent="1">
          <mxGeometry x="600" y="315" width="40" height="35.77" as="geometry" />
        </mxCell>
        <mxCell id="xpqFj0VOEehy9Jd_GjCr-42" value="" style="shape=image;verticalLabelPosition=bottom;labelBackgroundColor=default;verticalAlign=top;aspect=fixed;imageAspect=0;image=https://miro.medium.com/v2/resize:fit:860/1*BEGGWVM2rQx438Fevmz1Fw.png;" vertex="1" parent="1">
          <mxGeometry x="1070" y="315" width="40" height="35.77" as="geometry" />
        </mxCell>
        <mxCell id="xpqFj0VOEehy9Jd_GjCr-43" value="" style="shape=image;verticalLabelPosition=bottom;labelBackgroundColor=default;verticalAlign=top;aspect=fixed;imageAspect=0;image=https://miro.medium.com/v2/resize:fit:860/1*BEGGWVM2rQx438Fevmz1Fw.png;" vertex="1" parent="1">
          <mxGeometry x="100" y="375" width="40" height="35.77" as="geometry" />
        </mxCell>
        <mxCell id="xpqFj0VOEehy9Jd_GjCr-44" style="edgeStyle=orthogonalEdgeStyle;rounded=0;orthogonalLoop=1;jettySize=auto;html=1;entryX=-0.01;entryY=0.128;entryDx=0;entryDy=0;entryPerimeter=0;" edge="1" parent="1" source="xpqFj0VOEehy9Jd_GjCr-7" target="xpqFj0VOEehy9Jd_GjCr-13">
          <mxGeometry relative="1" as="geometry" />
        </mxCell>
        <mxCell id="xpqFj0VOEehy9Jd_GjCr-45" style="edgeStyle=orthogonalEdgeStyle;rounded=0;orthogonalLoop=1;jettySize=auto;html=1;entryX=-0.02;entryY=0.379;entryDx=0;entryDy=0;entryPerimeter=0;" edge="1" parent="1" source="xpqFj0VOEehy9Jd_GjCr-8" target="xpqFj0VOEehy9Jd_GjCr-13">
          <mxGeometry relative="1" as="geometry" />
        </mxCell>
        <mxCell id="xpqFj0VOEehy9Jd_GjCr-46" style="edgeStyle=orthogonalEdgeStyle;rounded=0;orthogonalLoop=1;jettySize=auto;html=1;entryX=0;entryY=0.638;entryDx=0;entryDy=0;entryPerimeter=0;" edge="1" parent="1" source="xpqFj0VOEehy9Jd_GjCr-9" target="xpqFj0VOEehy9Jd_GjCr-13">
          <mxGeometry relative="1" as="geometry" />
        </mxCell>
        <mxCell id="xpqFj0VOEehy9Jd_GjCr-47" style="edgeStyle=orthogonalEdgeStyle;rounded=0;orthogonalLoop=1;jettySize=auto;html=1;" edge="1" parent="1" source="xpqFj0VOEehy9Jd_GjCr-10">
          <mxGeometry relative="1" as="geometry">
            <mxPoint x="120" y="609" as="targetPoint" />
          </mxGeometry>
        </mxCell>
        <mxCell id="xpqFj0VOEehy9Jd_GjCr-48" style="edgeStyle=orthogonalEdgeStyle;rounded=0;orthogonalLoop=1;jettySize=auto;html=1;exitX=0;exitY=0.5;exitDx=0;exitDy=0;exitPerimeter=0;entryX=1;entryY=0.596;entryDx=0;entryDy=0;entryPerimeter=0;endArrow=none;startFill=1;startArrow=classic;" edge="1" parent="1" source="xpqFj0VOEehy9Jd_GjCr-14" target="xpqFj0VOEehy9Jd_GjCr-13">
          <mxGeometry relative="1" as="geometry" />
        </mxCell>
        <mxCell id="xpqFj0VOEehy9Jd_GjCr-49" value="" style="endArrow=none;dashed=1;html=1;dashPattern=1 3;strokeWidth=2;rounded=0;entryX=0.5;entryY=1;entryDx=0;entryDy=0;exitX=0.5;exitY=0;exitDx=0;exitDy=0;endFill=1;startFill=1;startArrow=classic;" edge="1" parent="1" source="xpqFj0VOEehy9Jd_GjCr-29" target="xpqFj0VOEehy9Jd_GjCr-30">
          <mxGeometry width="50" height="50" relative="1" as="geometry">
            <mxPoint x="690" y="560" as="sourcePoint" />
            <mxPoint x="740" y="510" as="targetPoint" />
          </mxGeometry>
        </mxCell>
        <mxCell id="xpqFj0VOEehy9Jd_GjCr-50" value="" style="endArrow=none;dashed=1;html=1;dashPattern=1 3;strokeWidth=2;rounded=0;entryX=0.5;entryY=1;entryDx=0;entryDy=0;exitX=0.5;exitY=0;exitDx=0;exitDy=0;startArrow=classic;startFill=1;" edge="1" parent="1" source="xpqFj0VOEehy9Jd_GjCr-36" target="xpqFj0VOEehy9Jd_GjCr-37">
          <mxGeometry width="50" height="50" relative="1" as="geometry">
            <mxPoint x="1149.5" y="507" as="sourcePoint" />
            <mxPoint x="1149.5" y="375" as="targetPoint" />
          </mxGeometry>
        </mxCell>
        <mxCell id="xpqFj0VOEehy9Jd_GjCr-51" style="edgeStyle=orthogonalEdgeStyle;rounded=0;orthogonalLoop=1;jettySize=auto;html=1;exitX=1;exitY=0.5;exitDx=0;exitDy=0;entryX=0;entryY=0.5;entryDx=0;entryDy=0;" edge="1" parent="1" source="xpqFj0VOEehy9Jd_GjCr-61" target="xpqFj0VOEehy9Jd_GjCr-66">
          <mxGeometry relative="1" as="geometry">
            <mxPoint x="400" y="130" as="sourcePoint" />
            <mxPoint x="600" y="130" as="targetPoint" />
          </mxGeometry>
        </mxCell>
        <mxCell id="xpqFj0VOEehy9Jd_GjCr-52" style="edgeStyle=orthogonalEdgeStyle;rounded=0;orthogonalLoop=1;jettySize=auto;html=1;entryX=0.5;entryY=0;entryDx=0;entryDy=0;" edge="1" parent="1" target="xpqFj0VOEehy9Jd_GjCr-13">
          <mxGeometry relative="1" as="geometry">
            <Array as="points">
              <mxPoint x="680" y="250" />
              <mxPoint x="170" y="250" />
            </Array>
            <mxPoint x="680" y="180" as="sourcePoint" />
          </mxGeometry>
        </mxCell>
        <mxCell id="xpqFj0VOEehy9Jd_GjCr-53" style="edgeStyle=orthogonalEdgeStyle;rounded=0;orthogonalLoop=1;jettySize=auto;html=1;entryX=0.5;entryY=0;entryDx=0;entryDy=0;" edge="1" parent="1" target="xpqFj0VOEehy9Jd_GjCr-30">
          <mxGeometry relative="1" as="geometry">
            <Array as="points">
              <mxPoint x="680" y="200" />
              <mxPoint x="680" y="200" />
            </Array>
            <mxPoint x="680" y="180" as="sourcePoint" />
          </mxGeometry>
        </mxCell>
        <mxCell id="xpqFj0VOEehy9Jd_GjCr-54" style="edgeStyle=orthogonalEdgeStyle;rounded=0;orthogonalLoop=1;jettySize=auto;html=1;exitX=0.5;exitY=1;exitDx=0;exitDy=0;" edge="1" parent="1" source="xpqFj0VOEehy9Jd_GjCr-66" target="xpqFj0VOEehy9Jd_GjCr-37">
          <mxGeometry relative="1" as="geometry">
            <Array as="points">
              <mxPoint x="680" y="250" />
              <mxPoint x="1150" y="250" />
            </Array>
            <mxPoint x="680" y="180" as="sourcePoint" />
          </mxGeometry>
        </mxCell>
        <mxCell id="xpqFj0VOEehy9Jd_GjCr-55" style="edgeStyle=orthogonalEdgeStyle;rounded=0;orthogonalLoop=1;jettySize=auto;html=1;entryX=0;entryY=0.5;entryDx=0;entryDy=0;exitX=1;exitY=0.5;exitDx=0;exitDy=0;" edge="1" parent="1" source="xpqFj0VOEehy9Jd_GjCr-62" target="xpqFj0VOEehy9Jd_GjCr-61">
          <mxGeometry relative="1" as="geometry">
            <mxPoint x="110" y="130" as="sourcePoint" />
            <mxPoint x="320" y="130" as="targetPoint" />
            <Array as="points" />
          </mxGeometry>
        </mxCell>
        <mxCell id="xpqFj0VOEehy9Jd_GjCr-56" style="edgeStyle=orthogonalEdgeStyle;rounded=0;orthogonalLoop=1;jettySize=auto;html=1;entryX=0.5;entryY=1;entryDx=0;entryDy=0;startArrow=classic;startFill=1;" edge="1" parent="1" source="xpqFj0VOEehy9Jd_GjCr-57" target="xpqFj0VOEehy9Jd_GjCr-68">
          <mxGeometry relative="1" as="geometry" />
        </mxCell>
        <mxCell id="xpqFj0VOEehy9Jd_GjCr-57" value="Superset" style="rounded=0;whiteSpace=wrap;html=1;" vertex="1" parent="1">
          <mxGeometry x="1090" y="808" width="120" height="65" as="geometry" />
        </mxCell>
        <mxCell id="xpqFj0VOEehy9Jd_GjCr-58" style="edgeStyle=orthogonalEdgeStyle;rounded=0;orthogonalLoop=1;jettySize=auto;html=1;entryX=0.5;entryY=1;entryDx=0;entryDy=0;entryPerimeter=0;exitX=1;exitY=0.5;exitDx=0;exitDy=0;" edge="1" parent="1" source="xpqFj0VOEehy9Jd_GjCr-68" target="xpqFj0VOEehy9Jd_GjCr-25">
          <mxGeometry relative="1" as="geometry" />
        </mxCell>
        <mxCell id="xpqFj0VOEehy9Jd_GjCr-59" style="edgeStyle=orthogonalEdgeStyle;rounded=0;orthogonalLoop=1;jettySize=auto;html=1;" edge="1" parent="1" source="xpqFj0VOEehy9Jd_GjCr-60">
          <mxGeometry relative="1" as="geometry">
            <mxPoint x="1150" y="878" as="targetPoint" />
          </mxGeometry>
        </mxCell>
        <mxCell id="xpqFj0VOEehy9Jd_GjCr-60" value="Business User" style="shape=umlActor;verticalLabelPosition=bottom;verticalAlign=top;html=1;outlineConnect=0;" vertex="1" parent="1">
          <mxGeometry x="1135" y="939" width="30" height="60" as="geometry" />
        </mxCell>
        <mxCell id="xpqFj0VOEehy9Jd_GjCr-61" value="Secret&lt;div&gt;Manager&lt;/div&gt;" style="rounded=0;whiteSpace=wrap;html=1;" vertex="1" parent="1">
          <mxGeometry x="305" y="98" width="120" height="65" as="geometry" />
        </mxCell>
        <mxCell id="xpqFj0VOEehy9Jd_GjCr-62" value="de_secrets" style="rounded=0;whiteSpace=wrap;html=1;" vertex="1" parent="1">
          <mxGeometry x="-96" y="90" width="90" height="80" as="geometry" />
        </mxCell>
        <mxCell id="xpqFj0VOEehy9Jd_GjCr-63" value="Data&amp;nbsp;&lt;div&gt;Engineer&lt;/div&gt;" style="shape=umlActor;verticalLabelPosition=bottom;verticalAlign=top;html=1;outlineConnect=0;" vertex="1" parent="1">
          <mxGeometry x="-147" y="97" width="30" height="60" as="geometry" />
        </mxCell>
        <mxCell id="xpqFj0VOEehy9Jd_GjCr-64" value="" style="shape=image;aspect=fixed;image=data:image/svg+xml,PD94bWwgdmVyc2lvbj0iMS4wIiBlbmNvZGluZz0iVVRGLTgiPz4KPCEtLSBVcGxvYWRlZCB0bzogU1ZHIFJlcG8sIHd3dy5zdmdyZXBvLmNvbSwgR2VuZXJhdG9yOiBTVkcgUmVwbyBNaXhlciBUb29scyAtLT4KPHN2ZyB3aWR0aD0iODAwcHgiIGhlaWdodD0iODAwcHgiIHZpZXdCb3g9IjAgMCA0OCA0OCIgeG1sbnM9Imh0dHA6Ly93d3cudzMub3JnLzIwMDAvc3ZnIj4KICA8dGl0bGU+Z2l0aHViPC90aXRsZT4KICA8ZyBpZD0iTGF5ZXJfMiIgZGF0YS1uYW1lPSJMYXllciAyIj4KICAgIDxnIGlkPSJpbnZpc2libGVfYm94IiBkYXRhLW5hbWU9ImludmlzaWJsZSBib3giPgogICAgICA8cmVjdCB3aWR0aD0iNDgiIGhlaWdodD0iNDgiIGZpbGw9Im5vbmUiLz4KICAgICAgPHJlY3Qgd2lkdGg9IjQ4IiBoZWlnaHQ9IjQ4IiBmaWxsPSJub25lIi8+CiAgICA8L2c+CiAgICA8ZyBpZD0iaWNvbnNfUTIiIGRhdGEtbmFtZT0iaWNvbnMgUTIiPgogICAgICA8cGF0aCBkPSJNMjQsMS45YTIxLjYsMjEuNiwwLDAsMC02LjgsNDIuMmMxLC4yLDEuOC0uOSwxLjgtMS44VjM5LjRjLTYsMS4zLTcuOS0yLjktNy45LTIuOWE2LjUsNi41LDAsMCwwLTIuMi0zLjJDNi45LDMxLjksOSwzMiw5LDMyYTQuMyw0LjMsMCwwLDEsMy4zLDJjMS43LDIuOSw1LjUsMi42LDYuNywyLjFhNS40LDUuNCwwLDAsMSwuNS0yLjlDMTIuNywzMiw5LDI4LDksMjIuNkExMC43LDEwLjcsMCwwLDEsMTEuOSwxNWE2LjIsNi4yLDAsMCwxLC4zLTYuNCw4LjksOC45LDAsMCwxLDYuNCwyLjksMTUuMSwxNS4xLDAsMCwxLDUuNC0uOCwxNy4xLDE3LjEsMCwwLDEsNS40LjcsOSw5LDAsMCwxLDYuNC0yLjgsNi41LDYuNSwwLDAsMSwuNCw2LjRBMTAuNywxMC43LDAsMCwxLDM5LDIyLjZDMzksMjgsMzUuMywzMiwyOC41LDMzLjJhNS40LDUuNCwwLDAsMSwuNSwyLjl2Ni4yYTEuOCwxLjgsMCwwLDAsMS45LDEuOEEyMS43LDIxLjcsMCwwLDAsMjQsMS45WiIvPgogICAgPC9nPgogIDwvZz4KPC9zdmc+;" vertex="1" parent="1">
          <mxGeometry x="-107" y="70" width="40" height="40" as="geometry" />
        </mxCell>
        <mxCell id="xpqFj0VOEehy9Jd_GjCr-65" value="sync.sh" style="text;html=1;align=center;verticalAlign=middle;whiteSpace=wrap;rounded=0;" vertex="1" parent="1">
          <mxGeometry x="-5" y="106" width="65" height="30" as="geometry" />
        </mxCell>
        <mxCell id="xpqFj0VOEehy9Jd_GjCr-66" value="Airflow" style="rounded=0;whiteSpace=wrap;html=1;" vertex="1" parent="1">
          <mxGeometry x="620" y="98" width="120" height="65" as="geometry" />
        </mxCell>
        <mxCell id="xpqFj0VOEehy9Jd_GjCr-67" style="edgeStyle=orthogonalEdgeStyle;rounded=0;orthogonalLoop=1;jettySize=auto;html=1;entryX=0;entryY=0.5;entryDx=0;entryDy=0;entryPerimeter=0;" edge="1" parent="1" source="xpqFj0VOEehy9Jd_GjCr-19" target="xpqFj0VOEehy9Jd_GjCr-14">
          <mxGeometry relative="1" as="geometry" />
        </mxCell>
        <mxCell id="xpqFj0VOEehy9Jd_GjCr-68" value="Trino" style="rounded=0;whiteSpace=wrap;html=1;" vertex="1" parent="1">
          <mxGeometry x="1090" y="692" width="120" height="65" as="geometry" />
        </mxCell>
        <mxCell id="xpqFj0VOEehy9Jd_GjCr-69" style="edgeStyle=orthogonalEdgeStyle;rounded=0;orthogonalLoop=1;jettySize=auto;html=1;entryX=0.5;entryY=1;entryDx=0;entryDy=0;entryPerimeter=0;" edge="1" parent="1" source="xpqFj0VOEehy9Jd_GjCr-68" target="xpqFj0VOEehy9Jd_GjCr-21">
          <mxGeometry relative="1" as="geometry" />
        </mxCell>
        <mxCell id="xpqFj0VOEehy9Jd_GjCr-70" value="" style="shape=image;verticalLabelPosition=bottom;labelBackgroundColor=default;verticalAlign=top;aspect=fixed;imageAspect=0;image=https://upload.wikimedia.org/wikipedia/commons/thumb/3/39/Kubernetes_logo_without_workmark.svg/2109px-Kubernetes_logo_without_workmark.svg.png;" vertex="1" parent="1">
          <mxGeometry x="30" y="-10" width="61.76" height="60" as="geometry" />
        </mxCell>
      </root>
    </mxGraphModel>
  </diagram>
</mxfile>
